<svg xmlns="http://www.w3.org/2000/svg" width="100" height="100" viewBox="0 0 100 100">
    <circle cx="50" cy="50" r="45" fill="#FF5733"/>
    <path d="M50 20c-20 0-36 16-36 36s16 36 36 36 36-16 36-36-16-36-36-36zm0 60c-15.5 0-28-12.5-28-28s12.5-28 28-28 28 12.5 28 28-12.5 28-28 28z" fill="#FFF"/>
    <path d="M60.5 36.5H63V39H60.5z" fill="#FFF"/>
    <path d="M46.5 40.5H49V43H46.5z" fill="#FFF"/>
    <path d="M51.5 49.5H54V52H51.5z" fill="#FFF"/>
    <path d="M53.5 36.5H56V39H53.5z" fill="#FFF"/>
    <path d="M38.5 40.5H41V43H38.5z" fill="#FFF"/>
    <path d="M43.5 49.5H46V52H43.5z" fill="#FFF"/>
    <path d="M45.5 36.5H48V39H45.5z" fill="#FFF"/>
</svg>